<svg width="123" height="86" viewBox="0 0 123 86" fill="none" xmlns="http://www.w3.org/2000/svg">
<path d="M92.8262 44.5412H92.3205C90.2175 44.6336 88.2272 45.6635 86.7676 47.4149C85.308 49.1662 84.4925 51.5026 84.4925 53.9335C84.4925 56.3645 85.308 58.7009 86.7676 60.4522C88.2272 62.2035 90.2175 63.2335 92.3205 63.3259C93.9021 63.3929 95.4621 62.8867 96.7821 61.8783C98.1021 60.87 99.116 59.4099 99.6817 57.7027C99.2108 57.903 98.7137 58.0086 98.2118 58.0151C96.9644 58.1412 95.7246 57.6897 94.7653 56.76C93.806 55.8302 93.2058 54.4984 93.0967 53.0575C92.9875 51.6165 93.3784 50.1845 94.1833 49.0765C94.9882 47.9684 96.1412 47.2751 97.3887 47.149C98.6829 46.9422 99.9865 46.8243 101.293 46.7959C103.307 46.8137 105.233 47.7476 106.655 49.3951C108.077 51.0427 108.88 53.2711 108.889 55.5974C108.899 56.11 108.88 56.6227 108.83 57.1322C107.219 66.8846 99.1055 74.7896 91.1917 74.7896C79.5032 74.7896 73.9176 66.9389 70.2958 51.4547C69.6843 48.8061 67.3325 35.9977 66.4035 32.8058C60.2418 11.1687 51.0697 0.302616 32.9254 0.00379899C16.6626 -0.267853 1.17591 14.0346 0 41.1455H30.0915H30.5971C32.7002 41.0531 34.6905 40.0231 36.1501 38.2718C37.6097 36.5205 38.4251 34.1841 38.4251 31.7531C38.4251 29.3222 37.6097 26.9858 36.1501 25.2345C34.6905 23.4831 32.7002 22.4532 30.5971 22.3608C29.0072 22.2998 27.4409 22.8179 26.1199 23.8417C24.7989 24.8654 23.79 26.343 23.2359 28.0655C23.7069 27.8652 24.204 27.7596 24.7058 27.7531C25.9533 27.627 27.1931 28.0785 28.1523 29.0082C29.1116 29.938 29.7119 31.2698 29.821 32.7107C29.9302 34.1517 29.5393 35.5837 28.7344 36.6917C27.9295 37.7997 26.7764 38.4931 25.529 38.6192C24.2348 38.826 22.9312 38.9439 21.6249 38.9723C19.611 38.9545 17.6842 38.0206 16.2623 36.3731C14.8404 34.7255 14.0378 32.4971 14.0286 30.1708C14.0184 29.6582 14.0381 29.1455 14.0874 28.6359C15.6984 18.8836 23.8121 10.9785 31.726 10.9785C43.4028 10.9785 48.9883 18.8293 52.6101 34.2863C53.2334 37.0028 55.7616 50.4904 56.8081 53.9675C63.111 74.8983 73.2708 85.7101 91.1329 85.9953C107.407 86.2669 121.495 74.8168 123 44.5412H92.8262Z" fill="url(#paint0_linear_9_2)"/>
<defs>
<linearGradient id="paint0_linear_9_2" x1="61.5" y1="27.4066" x2="61.5" y2="86" gradientUnits="userSpaceOnUse">
<stop stop-color="#69CBE0"/>
<stop offset="1" stop-color="#A0FEF3"/>
</linearGradient>
</defs>
</svg>
