<svg width="128" height="128" viewBox="0 0 128 128" fill="none" xmlns="http://www.w3.org/2000/svg">
<circle cx="64" cy="64" r="64" fill="#242833"/>
<path d="M94.8262 65.5412H94.3205C92.2175 65.6336 90.2272 66.6635 88.7676 68.4149C87.308 70.1662 86.4925 72.5026 86.4925 74.9335C86.4925 77.3645 87.308 79.7009 88.7676 81.4522C90.2272 83.2035 92.2175 84.2335 94.3205 84.3259C95.9021 84.3929 97.4621 83.8867 98.7821 82.8783C100.102 81.87 101.116 80.4099 101.682 78.7027C101.211 78.903 100.714 79.0086 100.212 79.0151C98.9644 79.1412 97.7246 78.6897 96.7653 77.76C95.806 76.8302 95.2058 75.4984 95.0967 74.0575C94.9875 72.6165 95.3784 71.1845 96.1833 70.0765C96.9882 68.9684 98.1412 68.2751 99.3887 68.149C100.683 67.9422 101.986 67.8243 103.293 67.7959C105.307 67.8137 107.233 68.7476 108.655 70.3951C110.077 72.0427 110.88 74.2711 110.889 76.5974C110.899 77.11 110.88 77.6227 110.83 78.1322C109.219 87.8846 101.106 95.7896 93.1917 95.7896C81.5032 95.7896 75.9176 87.9389 72.2958 72.4547C71.6843 69.8061 69.3325 56.9977 68.4035 53.8058C62.2418 32.1687 53.0697 21.3026 34.9254 21.0038C18.6626 20.7321 3.17591 35.0346 2 62.1455H32.0915H32.5971C34.7002 62.0531 36.6905 61.0231 38.1501 59.2718C39.6097 57.5205 40.4251 55.1841 40.4251 52.7531C40.4251 50.3222 39.6097 47.9858 38.1501 46.2345C36.6905 44.4831 34.7002 43.4532 32.5971 43.3608C31.0072 43.2998 29.4409 43.8179 28.1199 44.8417C26.7989 45.8654 25.79 47.343 25.2359 49.0655C25.7069 48.8652 26.204 48.7596 26.7058 48.7531C27.9533 48.627 29.1931 49.0785 30.1523 50.0082C31.1116 50.938 31.7119 52.2698 31.821 53.7107C31.9302 55.1517 31.5393 56.5837 30.7344 57.6917C29.9295 58.7997 28.7764 59.4931 27.529 59.6192C26.2348 59.826 24.9312 59.9439 23.6249 59.9723C21.611 59.9545 19.6842 59.0206 18.2623 57.3731C16.8404 55.7255 16.0378 53.4971 16.0286 51.1708C16.0184 50.6582 16.0381 50.1455 16.0874 49.6359C17.6984 39.8836 25.8121 31.9785 33.726 31.9785C45.4028 31.9785 50.9883 39.8293 54.6101 55.2863C55.2334 58.0028 57.7616 71.4904 58.8081 74.9675C65.111 95.8983 75.2708 106.71 93.1329 106.995C109.407 107.267 123.495 95.8168 125 65.5412H94.8262Z" fill="url(#paint0_linear_26_4)"/>
<defs>
<linearGradient id="paint0_linear_26_4" x1="63.5" y1="48.4066" x2="63.5" y2="107" gradientUnits="userSpaceOnUse">
<stop stop-color="#69CBE0"/>
<stop offset="1" stop-color="#A0FEF3"/>
</linearGradient>
</defs>
</svg>
