<svg width="151" height="91" viewBox="0 0 151 91" fill="none" xmlns="http://www.w3.org/2000/svg">
<path d="M113.957 47.1308H113.337C110.755 47.2285 108.311 48.3184 106.52 50.1715C104.728 52.0247 103.727 54.4969 103.727 57.0692C103.727 59.6415 104.728 62.1138 106.52 63.9669C108.311 65.82 110.755 66.9099 113.337 67.0077C115.278 67.0785 117.193 66.5429 118.814 65.4759C120.434 64.4089 121.679 62.864 122.374 61.0575C121.795 61.2694 121.185 61.3812 120.569 61.3881C119.038 61.5215 117.516 61.0438 116.338 60.06C115.16 59.0762 114.423 57.6669 114.289 56.1422C114.155 54.6175 114.635 53.1022 115.623 51.9298C116.612 50.7573 118.027 50.0237 119.558 49.8903C121.147 49.6714 122.748 49.5466 124.351 49.5166C126.824 49.5355 129.189 50.5236 130.935 52.2669C132.68 54.0103 133.666 56.3682 133.677 58.8298C133.689 59.3722 133.665 59.9148 133.605 60.4539C131.627 70.7732 121.666 79.1379 111.951 79.1379C97.6014 79.1379 90.7443 70.8307 86.2981 54.4463C85.5474 51.6437 82.6602 38.0906 81.5198 34.7131C73.9553 11.818 62.6953 0.32021 40.4206 0.00401986C20.4557 -0.283426 1.44359 14.8506 0 43.5377H36.9416H37.5623C40.1441 43.4399 42.5875 42.3501 44.3794 40.4969C46.1713 38.6438 47.1723 36.1716 47.1723 33.5993C47.1723 31.027 46.1713 28.5547 44.3794 26.7016C42.5875 24.8484 40.1441 23.7586 37.5623 23.6608C35.6105 23.5964 33.6877 24.1445 32.0659 25.2278C30.4442 26.3111 29.2056 27.8746 28.5254 29.6972C29.1036 29.4853 29.7139 29.3735 30.3299 29.3666C31.8614 29.2332 33.3833 29.7109 34.561 30.6947C35.7387 31.6785 36.4756 33.0878 36.6096 34.6125C36.7436 36.1372 36.2637 37.6525 35.2756 38.8249C34.2874 39.9974 32.8719 40.731 31.3404 40.8645C29.7517 41.0833 28.1513 41.2081 26.5477 41.2381C24.0753 41.2193 21.7099 40.2311 19.9643 38.4878C18.2186 36.7445 17.2334 34.3865 17.2221 31.9249C17.2096 31.3825 17.2337 30.84 17.2943 30.3008C19.272 19.9815 29.2328 11.6168 38.9482 11.6168C53.2831 11.6168 60.1401 19.924 64.5864 36.2797C65.3515 39.1542 68.4553 53.4258 69.7401 57.1051C77.4777 79.2529 89.9504 90.6932 111.879 90.995C131.858 91.2825 149.152 79.1666 151 47.1308H113.957Z" fill="url(#paint0_linear_9_2)"/>
<defs>
<linearGradient id="paint0_linear_9_2" x1="75.5" y1="29" x2="75.5" y2="91" gradientUnits="userSpaceOnUse">
<stop stop-color="#69CBE0"/>
<stop offset="1" stop-color="#A0FEF3"/>
</linearGradient>
</defs>
</svg>
