<svg width="25" height="25" viewBox="0 0 25 25" fill="none" xmlns="http://www.w3.org/2000/svg">
<path d="M11.7708 19.7396H13.3333V14.5052L15.4687 16.6407L16.5625 15.5469L12.5 11.5886L8.48958 15.599L9.58333 16.6927L11.7708 14.5052V19.7396ZM5.72916 22.9167C5.3125 22.9167 4.94791 22.7605 4.63541 22.448C4.32291 22.1355 4.16666 21.7709 4.16666 21.3542V3.64587C4.16666 3.22921 4.32291 2.86462 4.63541 2.55212C4.94791 2.23962 5.3125 2.08337 5.72916 2.08337H15.1302L20.8333 7.7865V21.3542C20.8333 21.7709 20.6771 22.1355 20.3646 22.448C20.0521 22.7605 19.6875 22.9167 19.2708 22.9167H5.72916ZM14.349 8.48962V3.64587H5.72916V21.3542H19.2708V8.48962H14.349ZM5.72916 3.64587V8.48962V3.64587V21.3542V3.64587Z" fill="url(#paint0_linear_227_7)"/>
<defs>
<linearGradient id="paint0_linear_227_7" x1="12.5" y1="2.08337" x2="12.5" y2="22.9167" gradientUnits="userSpaceOnUse">
<stop stop-color="#6FCEE2"/>
<stop offset="1" stop-color="#8AF5E9"/>
</linearGradient>
</defs>
</svg>
