<svg width="18" height="18" viewBox="0 0 18 18" fill="none" xmlns="http://www.w3.org/2000/svg">
<path d="M1.5 18C1.08333 18 0.729167 17.8542 0.4375 17.5625C0.145833 17.2708 0 16.9167 0 16.5V1.5C0 1.08333 0.145833 0.729167 0.4375 0.4375C0.729167 0.145833 1.08333 0 1.5 0H16.5C16.9167 0 17.2708 0.145833 17.5625 0.4375C17.8542 0.729167 18 1.08333 18 1.5V16.5C18 16.9167 17.8542 17.2708 17.5625 17.5625C17.2708 17.8542 16.9167 18 16.5 18H1.5ZM1.5 16.5H16.5V3.5H1.5V16.5ZM4 8.75V7.25H13.75V8.75H4ZM4 12.75V11.25H9.75V12.75H4Z" fill="url(#paint0_linear_248_10)"/>
<defs>
<linearGradient id="paint0_linear_248_10" x1="9" y1="0" x2="9" y2="18" gradientUnits="userSpaceOnUse">
<stop stop-color="#6FCEE2"/>
<stop offset="1" stop-color="#8AF5E9"/>
</linearGradient>
</defs>
</svg>
