<svg width="23" height="17" viewBox="0 0 23 17" fill="none" xmlns="http://www.w3.org/2000/svg">
<path d="M11.5 16.3807C9.89 16.3807 8.38542 16.1657 6.98625 15.7357C5.58708 15.3057 4.37 14.7221 3.335 13.985C2.3 13.2479 1.48542 12.3776 0.89125 11.3743C0.297083 10.371 0 9.29602 0 8.14937C0 7.00273 0.297083 5.93457 0.89125 4.94491C1.48542 3.95525 2.3 3.09185 3.335 2.35472C4.37 1.61759 5.58708 1.04085 6.98625 0.624512C8.38542 0.208171 9.89 0 11.5 0C13.11 0 14.6146 0.208171 16.0138 0.624512C17.4129 1.04085 18.63 1.61759 19.665 2.35472C20.7 3.09185 21.5146 3.95525 22.1087 4.94491C22.7029 5.93457 23 7.00273 23 8.14937C23 9.29602 22.7029 10.371 22.1087 11.3743C21.5146 12.3776 20.7 13.2479 19.665 13.985C18.63 14.7221 17.4129 15.3057 16.0138 15.7357C14.6146 16.1657 13.11 16.3807 11.5 16.3807ZM11.5 15.1931C12.1708 14.7016 12.7315 14.1385 13.1819 13.5038C13.6323 12.869 14.0012 12.1149 14.2887 11.2412H8.74C9.00833 12.0603 9.36771 12.7974 9.81812 13.4526C10.2685 14.1078 10.8292 14.688 11.5 15.1931ZM9.05625 14.9473C8.57708 14.4286 8.165 13.869 7.82 13.2683C7.475 12.6677 7.1875 11.992 6.9575 11.2412H2.645C3.37333 12.2104 4.21667 12.9714 5.175 13.5243C6.13333 14.0771 7.42708 14.5515 9.05625 14.9473ZM13.9725 14.9269C15.3525 14.6129 16.5935 14.142 17.6956 13.514C18.7977 12.8861 19.6842 12.1285 20.355 11.2412H16.0713C15.8221 11.9784 15.5298 12.6472 15.1944 13.2479C14.859 13.8485 14.4517 14.4081 13.9725 14.9269ZM2.07 10.0127H6.64125C6.58375 9.64411 6.55021 9.31308 6.54063 9.0196C6.53104 8.72611 6.52625 8.43604 6.52625 8.14937C6.52625 7.80811 6.53583 7.50439 6.555 7.2382C6.57417 6.97201 6.6125 6.67512 6.67 6.3475H2.07C1.93583 6.67512 1.84479 6.9686 1.79688 7.22796C1.74896 7.48732 1.725 7.79446 1.725 8.14937C1.725 8.50429 1.74896 8.82166 1.79688 9.1015C1.84479 9.38134 1.93583 9.68506 2.07 10.0127ZM8.42375 10.0127H14.605C14.6817 9.58951 14.7296 9.24483 14.7487 8.97864C14.7679 8.71246 14.7775 8.43604 14.7775 8.14937C14.7775 7.87636 14.7679 7.61359 14.7487 7.36106C14.7296 7.10852 14.6817 6.77067 14.605 6.3475H8.42375C8.34708 6.77067 8.29917 7.10852 8.28 7.36106C8.26083 7.61359 8.25125 7.87636 8.25125 8.14937C8.25125 8.43604 8.26083 8.71246 8.28 8.97864C8.29917 9.24483 8.34708 9.58951 8.42375 10.0127ZM16.33 10.0127H20.93C21.0642 9.68506 21.1552 9.38134 21.2031 9.1015C21.251 8.82166 21.275 8.50429 21.275 8.14937C21.275 7.79446 21.251 7.48732 21.2031 7.22796C21.1552 6.9686 21.0642 6.67512 20.93 6.3475H16.3587C16.4162 6.82527 16.4546 7.19042 16.4738 7.44296C16.4929 7.69549 16.5025 7.93097 16.5025 8.14937C16.5025 8.44969 16.4881 8.73294 16.4594 8.99912C16.4306 9.26531 16.3875 9.60316 16.33 10.0127ZM16.0425 5.11895H20.355C19.7225 4.17707 18.8552 3.39216 17.7531 2.76424C16.651 2.13631 15.3812 1.69267 13.9437 1.43331C14.4229 1.93838 14.8302 2.4844 15.1656 3.07137C15.501 3.65835 15.7933 4.34087 16.0425 5.11895ZM8.74 5.11895H14.3175C14.1067 4.39547 13.7521 3.69588 13.2537 3.02018C12.7554 2.34448 12.1708 1.74727 11.5 1.22855C10.8867 1.59711 10.3692 2.08171 9.9475 2.68233C9.52583 3.28296 9.12333 4.09516 8.74 5.11895ZM2.645 5.11895H6.98625C7.19708 4.38182 7.46542 3.72319 7.79125 3.14304C8.11708 2.56289 8.52917 1.9998 9.0275 1.45378C7.59 1.71314 6.33458 2.14996 5.26125 2.76424C4.18792 3.37851 3.31583 4.16342 2.645 5.11895Z" fill="url(#paint0_linear_14_115)"/>
<defs>
<linearGradient id="paint0_linear_14_115" x1="11.5" y1="0" x2="11.5" y2="16.3807" gradientUnits="userSpaceOnUse">
<stop stop-color="#6FCEE2"/>
<stop offset="1" stop-color="#8AF5E9"/>
</linearGradient>
</defs>
</svg>
