<svg width="40" height="24" viewBox="0 0 40 24" fill="none" xmlns="http://www.w3.org/2000/svg">
<path d="M30.1874 12.4301H30.0229C29.339 12.4559 28.6918 12.7433 28.2171 13.2321C27.7424 13.7208 27.4772 14.3728 27.4772 15.0512C27.4772 15.7296 27.7424 16.3817 28.2171 16.8704C28.6918 17.3591 29.339 17.6466 30.0229 17.6723C30.5373 17.691 31.0446 17.5498 31.4739 17.2684C31.9031 16.987 32.2329 16.5795 32.4168 16.1031C32.2637 16.159 32.102 16.1885 31.9388 16.1903C31.5331 16.2255 31.13 16.0995 30.818 15.84C30.506 15.5805 30.3108 15.2089 30.2753 14.8067C30.2398 14.4046 30.3669 14.005 30.6287 13.6958C30.8905 13.3865 31.2654 13.1931 31.6711 13.1579C32.092 13.1002 32.5159 13.0672 32.9407 13.0593C33.5957 13.0643 34.2223 13.3249 34.6847 13.7847C35.1471 14.2445 35.4081 14.8663 35.4111 15.5156C35.4144 15.6586 35.408 15.8017 35.392 15.9439C34.8681 18.6655 32.2294 20.8715 29.6558 20.8715C25.8547 20.8715 24.0382 18.6806 22.8604 14.3595C22.6616 13.6203 21.8967 10.0459 21.5946 9.15511C19.5908 3.11685 16.608 0.0844511 10.7075 0.00106018C5.41874 -0.0747497 0.382409 3.91664 0 11.4825L9.78585 11.4825H9.95029C10.6342 11.4567 11.2815 11.1693 11.7561 10.6805C12.2308 10.1918 12.496 9.53975 12.496 8.86134C12.496 8.18294 12.2308 7.53091 11.7561 7.04217C11.2815 6.55344 10.6342 6.266 9.95029 6.24022C9.43324 6.22321 8.92388 6.36779 8.49428 6.65349C8.06468 6.93919 7.73658 7.35154 7.5564 7.83222C7.70956 7.77634 7.87123 7.74686 8.03442 7.74504C8.4401 7.70986 8.84327 7.83585 9.15523 8.09532C9.4672 8.35478 9.6624 8.72645 9.69789 9.12857C9.73339 9.53069 9.60628 9.93032 9.34452 10.2395C9.08276 10.5488 8.70779 10.7423 8.3021 10.7774C7.88124 10.8352 7.4573 10.8681 7.0325 10.876C6.37755 10.871 5.75097 10.6104 5.28855 10.1506C4.82613 9.69085 4.56514 9.06896 4.56214 8.41975C4.55883 8.27671 4.56522 8.13361 4.58126 7.99142C5.10516 5.26985 7.74378 3.06378 10.3174 3.06378C14.1147 3.06378 15.9312 5.25469 17.109 9.56827C17.3117 10.3264 18.1338 14.0903 18.4742 15.0607C20.5239 20.9019 23.8279 23.9191 29.6367 23.9987C34.9293 24.0745 39.5105 20.8791 40 12.4301L30.1874 12.4301Z" fill="url(#paint0_linear_25_11)"/>
<defs>
<linearGradient id="paint0_linear_25_11" x1="20" y1="7.64835" x2="20" y2="24" gradientUnits="userSpaceOnUse">
<stop stop-color="#69CBE0"/>
<stop offset="1" stop-color="#A0FEF3"/>
</linearGradient>
</defs>
</svg>
