<svg width="285" height="30" viewBox="0 0 285 30" fill="none" xmlns="http://www.w3.org/2000/svg">
<path d="M10.7402 5.70898V29H6.64453V5.70898H0.404297V1.85938H16.9629V5.70898H10.7402ZM24.7148 12.4766H36.4219V1.85938H40.5176V29H36.4219V16.3262H24.7148V29H20.6191V1.85938H24.7148V12.4766ZM51.1172 1.85938V29H47.0215V1.85938H51.1172ZM73.582 22.4082H61.9629L58.9395 29H54.5273L67.957 0.154297L80.9121 29H76.4297L73.582 22.4082ZM71.9121 18.5586L67.8867 9.33008L63.668 18.5586H71.9121ZM97.0488 14.8672H108.264V15.7637C108.264 17.8027 108.023 19.6074 107.543 21.1777C107.074 22.6309 106.283 23.9902 105.17 25.2559C102.65 28.0918 99.4453 29.5098 95.5547 29.5098C91.7578 29.5098 88.5059 28.1387 85.7988 25.3965C83.0918 22.6426 81.7383 19.3379 81.7383 15.4824C81.7383 11.5449 83.1152 8.20508 85.8691 5.46289C88.623 2.70898 91.9746 1.33203 95.9238 1.33203C98.0449 1.33203 100.025 1.76563 101.865 2.63281C103.623 3.5 105.352 4.90625 107.051 6.85156L104.133 9.64648C101.906 6.68164 99.1934 5.19922 95.9941 5.19922C93.123 5.19922 90.7148 6.18945 88.7695 8.16992C86.8242 10.1152 85.8516 12.5527 85.8516 15.4824C85.8516 18.5059 86.9355 20.9961 89.1035 22.9531C91.1309 24.7695 93.3281 25.6777 95.6953 25.6777C97.7109 25.6777 99.5215 24.998 101.127 23.6387C102.732 22.2676 103.629 20.627 103.816 18.7168H97.0488V14.8672ZM112.078 15.3066C112.078 11.4863 113.479 8.20508 116.279 5.46289C119.068 2.7207 122.42 1.34961 126.334 1.34961C130.201 1.34961 133.518 2.73242 136.283 5.49805C139.061 8.26367 140.449 11.5859 140.449 15.4648C140.449 19.3672 139.055 22.6777 136.266 25.3965C133.465 28.127 130.084 29.4922 126.123 29.4922C122.619 29.4922 119.473 28.2793 116.684 25.8535C113.613 23.1699 112.078 19.6543 112.078 15.3066ZM116.209 15.3594C116.209 18.3594 117.217 20.8262 119.232 22.7598C121.236 24.6934 123.551 25.6602 126.176 25.6602C129.023 25.6602 131.426 24.6758 133.383 22.707C135.34 20.7148 136.318 18.2891 136.318 15.4297C136.318 12.5352 135.352 10.1094 133.418 8.15234C131.496 6.18359 129.117 5.19922 126.281 5.19922C123.457 5.19922 121.072 6.18359 119.127 8.15234C117.182 10.0977 116.209 12.5 116.209 15.3594Z" fill="#0B0C12"/>
<path d="M149.695 1.85938V25.1504H157.676V29H145.6V1.85938H149.695ZM179.016 22.4082H167.396L164.373 29H159.961L173.391 0.154297L186.346 29H181.863L179.016 22.4082ZM177.346 18.5586L173.32 9.33008L169.102 18.5586H177.346ZM198.949 17.4336L207.352 29H202.342L194.59 17.8906H193.852V29H189.756V1.85938H194.555C198.141 1.85938 200.73 2.5332 202.324 3.88086C204.082 5.38086 204.961 7.36133 204.961 9.82227C204.961 11.7441 204.41 13.3965 203.309 14.7793C202.207 16.1621 200.754 17.0469 198.949 17.4336ZM193.852 14.3223H195.152C199.031 14.3223 200.971 12.8398 200.971 9.875C200.971 7.09766 199.084 5.70898 195.311 5.70898H193.852V14.3223ZM226.424 5.70898H215.543V12.2305H226.107V16.0801H215.543V25.1504H226.424V29H211.447V1.85938H226.424V5.70898ZM231.803 29V1.85938H237.498C240.229 1.85938 242.385 2.12891 243.967 2.66797C245.666 3.19531 247.207 4.0918 248.59 5.35742C251.391 7.91211 252.791 11.2695 252.791 15.4297C252.791 19.6016 251.332 22.9766 248.414 25.5547C246.949 26.8438 245.414 27.7402 243.809 28.2441C242.309 28.748 240.182 29 237.428 29H231.803ZM235.898 25.1504H237.744C239.584 25.1504 241.113 24.957 242.332 24.5703C243.551 24.1602 244.652 23.5098 245.637 22.6191C247.652 20.7793 248.66 18.3828 248.66 15.4297C248.66 12.4531 247.664 10.0391 245.672 8.1875C243.879 6.53516 241.236 5.70898 237.744 5.70898H235.898V25.1504ZM256.605 15.3066C256.605 11.4863 258.006 8.20508 260.807 5.46289C263.596 2.7207 266.947 1.34961 270.861 1.34961C274.729 1.34961 278.045 2.73242 280.811 5.49805C283.588 8.26367 284.977 11.5859 284.977 15.4648C284.977 19.3672 283.582 22.6777 280.793 25.3965C277.992 28.127 274.611 29.4922 270.65 29.4922C267.146 29.4922 264 28.2793 261.211 25.8535C258.141 23.1699 256.605 19.6543 256.605 15.3066ZM260.736 15.3594C260.736 18.3594 261.744 20.8262 263.76 22.7598C265.764 24.6934 268.078 25.6602 270.703 25.6602C273.551 25.6602 275.953 24.6758 277.91 22.707C279.867 20.7148 280.846 18.2891 280.846 15.4297C280.846 12.5352 279.879 10.1094 277.945 8.15234C276.023 6.18359 273.645 5.19922 270.809 5.19922C267.984 5.19922 265.6 6.18359 263.654 8.15234C261.709 10.0977 260.736 12.5 260.736 15.3594Z" fill="#636973"/>
</svg>
