<svg width="229" height="42" viewBox="0 0 229 42" fill="none" xmlns="http://www.w3.org/2000/svg">
<g clip-path="url(#clip0_25_3)">
<path d="M72.3769 41.3983H62.8894V0.722046H48.8784C51.8608 0.722046 53.1818 2.16617 53.5821 7.62176V41.7192H87.1085V31.0286C86.1701 34.1628 84.2071 36.8895 81.535 38.7704C78.863 40.6512 75.6374 41.5768 72.3769 41.3983Z" fill="#0B0C12"/>
<path d="M24.2391 1.62463C10.8485 1.62463 0 10.6103 0 21.6819C0 32.7536 10.8485 41.7392 24.2391 41.7392C37.6296 41.7392 48.4581 32.7536 48.4581 21.6819C48.4581 10.6103 37.6096 1.62463 24.2391 1.62463ZM24.2391 41.7392C16.4529 41.7392 10.228 32.7937 10.228 21.6819C10.228 10.5702 16.533 1.62463 24.2391 1.62463C31.9451 1.62463 38.2501 10.5902 38.2501 21.6819C38.2501 32.7736 32.0252 41.659 24.2391 41.659V41.7392Z" fill="#0B0C12"/>
<path d="M137.828 2.74783V12.5358C137.828 10.0286 140.37 1.76502 146.956 1.76502H154.341L154.201 32.8739C154.421 38.4699 151.839 41.7392 148.577 41.7392H169.613C166.371 41.7392 163.789 38.4699 164.009 32.8739L164.189 1.76502H171.615C177.379 1.76502 179.281 10.149 179.281 12.5358V2.74783V1.40399H137.828V2.74783Z" fill="#0B0C12"/>
<path d="M119.714 32.9141C118.333 38.7307 114.69 42 110.347 42H123.977L119.714 32.9141Z" fill="#0B0C12"/>
<path d="M137.968 34.3782L120.655 0H105.843C109.286 0 112.548 4.17192 109.466 10.5501L97.7969 33.7364C96.0955 37.0659 93.9138 41.9599 90.6913 41.9599H108.565C105.123 41.9599 97.1163 39.4527 99.298 31.4298L112.328 5.73639C112.328 5.73639 130.082 41.9599 129.382 41.9599H144.714C141.711 41.9599 139.59 37.3668 137.968 34.3782Z" fill="#0B0C12"/>
<path d="M223.796 1.74499H218.151C219.863 2.42738 221.28 3.69121 222.155 5.31519C223.062 7.55521 223.498 9.95872 223.436 12.3754C223.436 12.3754 223.436 23.2063 223.436 24.1089C223.436 35.5616 215.85 39.0917 208.604 39.0917C205.102 39.0441 201.762 37.607 199.315 35.0955C196.869 32.5839 195.516 29.2028 195.554 25.6934V10.6705C195.734 2.64757 200.017 1.58453 201.558 1.58453H184.145V26.8166C184.145 38.5301 198.416 41.8195 204.581 41.8195C217.471 41.8195 223.836 36.1633 223.836 27.0373V12.6963C223.717 10.1396 224.126 7.58584 225.037 5.19485C225.914 3.60457 227.336 2.38624 229.04 1.76505H223.836L223.796 1.74499Z" fill="#0B0C12"/>
</g>
<defs>
<clipPath id="clip0_25_3">
<rect width="229" height="42" fill="white"/>
</clipPath>
</defs>
</svg>
